<?xml version="1.0" standalone="no"?><svg xmlns="http://www.w3.org/2000/svg" viewBox="0 0 1440 320"><path fill="#C4501B" fill-opacity="1" d="M0,96L14.1,122.7C28.2,149,56,203,85,208C112.9,213,141,171,169,149.3C197.6,128,226,128,254,144C282.4,160,311,192,339,176C367.1,160,395,96,424,96C451.8,96,480,160,508,181.3C536.5,203,565,181,593,170.7C621.2,160,649,160,678,186.7C705.9,213,734,267,762,266.7C790.6,267,819,213,847,202.7C875.3,192,904,224,932,234.7C960,245,988,235,1016,218.7C1044.7,203,1073,181,1101,160C1129.4,139,1158,117,1186,106.7C1214.1,96,1242,96,1271,96C1298.8,96,1327,96,1355,128C1383.5,160,1412,224,1426,256L1440,288L1440,0L1425.9,0C1411.8,0,1384,0,1355,0C1327.1,0,1299,0,1271,0C1242.4,0,1214,0,1186,0C1157.6,0,1129,0,1101,0C1072.9,0,1045,0,1016,0C988.2,0,960,0,932,0C903.5,0,875,0,847,0C818.8,0,791,0,762,0C734.1,0,706,0,678,0C649.4,0,621,0,593,0C564.7,0,536,0,508,0C480,0,452,0,424,0C395.3,0,367,0,339,0C310.6,0,282,0,254,0C225.9,0,198,0,169,0C141.2,0,113,0,85,0C56.5,0,28,0,14,0L0,0Z"></path></svg>